<mxfile host="app.diagrams.net" agent="Mozilla/5.0 (Macintosh; Intel Mac OS X 10_15_7) AppleWebKit/537.36 (KHTML, like Gecko) Chrome/137.0.0.0 Safari/537.36" version="27.0.9">
  <diagram name="Page-1" id="HTlwCuS9AVf8AbXLvvJz">
    <mxGraphModel grid="1" page="1" gridSize="10" guides="1" tooltips="1" connect="1" arrows="1" fold="1" pageScale="1" pageWidth="1600" pageHeight="900" math="0" shadow="0">
      <root>
        <mxCell id="0" />
        <mxCell id="1" parent="0" />
        <mxCell id="u1D3HhTzuwHHyMInepU7-35" value="" style="rounded=0;whiteSpace=wrap;html=1;strokeColor=none;" vertex="1" parent="1">
          <mxGeometry x="180" y="170" width="1130" height="570" as="geometry" />
        </mxCell>
        <mxCell id="u1D3HhTzuwHHyMInepU7-34" value="" style="group" connectable="0" vertex="1" parent="1">
          <mxGeometry x="230" y="205" width="1040" height="500" as="geometry" />
        </mxCell>
        <mxCell id="WVSZkAiSRwrDIBDP6Hip-1" value="" style="rounded=0;whiteSpace=wrap;html=1;fillColor=none;dashed=1;" vertex="1" parent="u1D3HhTzuwHHyMInepU7-34">
          <mxGeometry y="10" width="170" height="490" as="geometry" />
        </mxCell>
        <mxCell id="WVSZkAiSRwrDIBDP6Hip-2" value="Sources" style="rounded=0;whiteSpace=wrap;html=1;strokeColor=none;fontSize=20;" vertex="1" parent="u1D3HhTzuwHHyMInepU7-34">
          <mxGeometry x="40" width="90" height="30" as="geometry" />
        </mxCell>
        <mxCell id="WVSZkAiSRwrDIBDP6Hip-10" style="edgeStyle=orthogonalEdgeStyle;rounded=0;orthogonalLoop=1;jettySize=auto;html=1;entryX=0;entryY=0.5;entryDx=0;entryDy=0;" edge="1" parent="u1D3HhTzuwHHyMInepU7-34" source="WVSZkAiSRwrDIBDP6Hip-3" target="WVSZkAiSRwrDIBDP6Hip-7">
          <mxGeometry relative="1" as="geometry">
            <Array as="points">
              <mxPoint x="200" y="170" />
              <mxPoint x="200" y="120" />
            </Array>
          </mxGeometry>
        </mxCell>
        <mxCell id="WVSZkAiSRwrDIBDP6Hip-11" style="edgeStyle=orthogonalEdgeStyle;rounded=0;orthogonalLoop=1;jettySize=auto;html=1;entryX=0;entryY=0.5;entryDx=0;entryDy=0;" edge="1" parent="u1D3HhTzuwHHyMInepU7-34" source="WVSZkAiSRwrDIBDP6Hip-3" target="WVSZkAiSRwrDIBDP6Hip-8">
          <mxGeometry relative="1" as="geometry" />
        </mxCell>
        <mxCell id="WVSZkAiSRwrDIBDP6Hip-12" style="edgeStyle=orthogonalEdgeStyle;rounded=0;orthogonalLoop=1;jettySize=auto;html=1;entryX=0;entryY=0.5;entryDx=0;entryDy=0;" edge="1" parent="u1D3HhTzuwHHyMInepU7-34" source="WVSZkAiSRwrDIBDP6Hip-3" target="WVSZkAiSRwrDIBDP6Hip-9">
          <mxGeometry relative="1" as="geometry">
            <Array as="points">
              <mxPoint x="200" y="170" />
              <mxPoint x="200" y="220" />
            </Array>
          </mxGeometry>
        </mxCell>
        <mxCell id="WVSZkAiSRwrDIBDP6Hip-3" value="" style="image;aspect=fixed;html=1;points=[];align=center;fontSize=12;image=img/lib/azure2/general/Folder_Blank.svg;" vertex="1" parent="u1D3HhTzuwHHyMInepU7-34">
          <mxGeometry x="60.349999999999994" y="150" width="49.29" height="40" as="geometry" />
        </mxCell>
        <mxCell id="WVSZkAiSRwrDIBDP6Hip-4" value="crm" style="text;html=1;align=center;verticalAlign=middle;resizable=0;points=[];autosize=1;strokeColor=none;fillColor=none;" vertex="1" parent="u1D3HhTzuwHHyMInepU7-34">
          <mxGeometry x="65" y="190" width="40" height="30" as="geometry" />
        </mxCell>
        <mxCell id="WVSZkAiSRwrDIBDP6Hip-5" value="v" style="rounded=0;whiteSpace=wrap;html=1;fillColor=none;dashed=1;strokeColor=#d79b00;strokeWidth=2;" vertex="1" parent="u1D3HhTzuwHHyMInepU7-34">
          <mxGeometry x="230" y="80" width="190" height="390" as="geometry" />
        </mxCell>
        <mxCell id="WVSZkAiSRwrDIBDP6Hip-6" value="&lt;font style=&quot;font-size: 20px;&quot;&gt;Bronze&lt;/font&gt;" style="rounded=1;whiteSpace=wrap;html=1;fillColor=#ffe6cc;strokeColor=#d79b00;glass=0;sketch=1;curveFitting=1;jiggle=2;" vertex="1" parent="u1D3HhTzuwHHyMInepU7-34">
          <mxGeometry x="230" y="30" width="190" height="40" as="geometry" />
        </mxCell>
        <mxCell id="u1D3HhTzuwHHyMInepU7-9" style="edgeStyle=orthogonalEdgeStyle;rounded=0;orthogonalLoop=1;jettySize=auto;html=1;entryX=0;entryY=0.5;entryDx=0;entryDy=0;" edge="1" parent="u1D3HhTzuwHHyMInepU7-34" source="WVSZkAiSRwrDIBDP6Hip-7" target="u1D3HhTzuwHHyMInepU7-3">
          <mxGeometry relative="1" as="geometry" />
        </mxCell>
        <mxCell id="WVSZkAiSRwrDIBDP6Hip-7" value="&lt;font style=&quot;font-size: 16px;&quot;&gt;crm_cust_info&lt;/font&gt;" style="rounded=0;whiteSpace=wrap;html=1;fillColor=#ffe6cc;strokeColor=#d79b00;" vertex="1" parent="u1D3HhTzuwHHyMInepU7-34">
          <mxGeometry x="250" y="100" width="150" height="40" as="geometry" />
        </mxCell>
        <mxCell id="u1D3HhTzuwHHyMInepU7-10" style="edgeStyle=orthogonalEdgeStyle;rounded=0;orthogonalLoop=1;jettySize=auto;html=1;entryX=0;entryY=0.5;entryDx=0;entryDy=0;" edge="1" parent="u1D3HhTzuwHHyMInepU7-34" source="WVSZkAiSRwrDIBDP6Hip-8" target="u1D3HhTzuwHHyMInepU7-4">
          <mxGeometry relative="1" as="geometry" />
        </mxCell>
        <mxCell id="WVSZkAiSRwrDIBDP6Hip-8" value="&lt;font style=&quot;font-size: 16px;&quot;&gt;crm_prd_info&lt;/font&gt;" style="rounded=0;whiteSpace=wrap;html=1;fillColor=#ffe6cc;strokeColor=#d79b00;" vertex="1" parent="u1D3HhTzuwHHyMInepU7-34">
          <mxGeometry x="250" y="150" width="150" height="40" as="geometry" />
        </mxCell>
        <mxCell id="u1D3HhTzuwHHyMInepU7-11" style="edgeStyle=orthogonalEdgeStyle;rounded=0;orthogonalLoop=1;jettySize=auto;html=1;entryX=0;entryY=0.5;entryDx=0;entryDy=0;" edge="1" parent="u1D3HhTzuwHHyMInepU7-34" source="WVSZkAiSRwrDIBDP6Hip-9" target="u1D3HhTzuwHHyMInepU7-5">
          <mxGeometry relative="1" as="geometry" />
        </mxCell>
        <mxCell id="WVSZkAiSRwrDIBDP6Hip-9" value="&lt;font style=&quot;font-size: 16px;&quot;&gt;crm_sales_details&lt;/font&gt;" style="rounded=0;whiteSpace=wrap;html=1;fillColor=#ffe6cc;strokeColor=#d79b00;" vertex="1" parent="u1D3HhTzuwHHyMInepU7-34">
          <mxGeometry x="250" y="200" width="150" height="40" as="geometry" />
        </mxCell>
        <mxCell id="WVSZkAiSRwrDIBDP6Hip-13" style="edgeStyle=orthogonalEdgeStyle;rounded=0;orthogonalLoop=1;jettySize=auto;html=1;entryX=0;entryY=0.5;entryDx=0;entryDy=0;" edge="1" parent="u1D3HhTzuwHHyMInepU7-34" source="WVSZkAiSRwrDIBDP6Hip-16" target="WVSZkAiSRwrDIBDP6Hip-18">
          <mxGeometry relative="1" as="geometry">
            <Array as="points">
              <mxPoint x="200" y="340" />
              <mxPoint x="200" y="290" />
            </Array>
          </mxGeometry>
        </mxCell>
        <mxCell id="WVSZkAiSRwrDIBDP6Hip-14" style="edgeStyle=orthogonalEdgeStyle;rounded=0;orthogonalLoop=1;jettySize=auto;html=1;entryX=0;entryY=0.5;entryDx=0;entryDy=0;" edge="1" parent="u1D3HhTzuwHHyMInepU7-34" source="WVSZkAiSRwrDIBDP6Hip-16" target="WVSZkAiSRwrDIBDP6Hip-19">
          <mxGeometry relative="1" as="geometry" />
        </mxCell>
        <mxCell id="WVSZkAiSRwrDIBDP6Hip-15" style="edgeStyle=orthogonalEdgeStyle;rounded=0;orthogonalLoop=1;jettySize=auto;html=1;entryX=0;entryY=0.5;entryDx=0;entryDy=0;" edge="1" parent="u1D3HhTzuwHHyMInepU7-34" source="WVSZkAiSRwrDIBDP6Hip-16" target="WVSZkAiSRwrDIBDP6Hip-20">
          <mxGeometry relative="1" as="geometry">
            <Array as="points">
              <mxPoint x="200" y="340" />
              <mxPoint x="200" y="390" />
            </Array>
          </mxGeometry>
        </mxCell>
        <mxCell id="WVSZkAiSRwrDIBDP6Hip-16" value="" style="image;aspect=fixed;html=1;points=[];align=center;fontSize=12;image=img/lib/azure2/general/Folder_Blank.svg;" vertex="1" parent="u1D3HhTzuwHHyMInepU7-34">
          <mxGeometry x="60.35000000000002" y="320" width="49.29" height="40" as="geometry" />
        </mxCell>
        <mxCell id="WVSZkAiSRwrDIBDP6Hip-17" value="erp" style="text;html=1;align=center;verticalAlign=middle;resizable=0;points=[];autosize=1;strokeColor=none;fillColor=none;" vertex="1" parent="u1D3HhTzuwHHyMInepU7-34">
          <mxGeometry x="65" y="360" width="40" height="30" as="geometry" />
        </mxCell>
        <mxCell id="u1D3HhTzuwHHyMInepU7-12" style="edgeStyle=orthogonalEdgeStyle;rounded=0;orthogonalLoop=1;jettySize=auto;html=1;entryX=0;entryY=0.5;entryDx=0;entryDy=0;" edge="1" parent="u1D3HhTzuwHHyMInepU7-34" source="WVSZkAiSRwrDIBDP6Hip-18" target="u1D3HhTzuwHHyMInepU7-6">
          <mxGeometry relative="1" as="geometry" />
        </mxCell>
        <mxCell id="WVSZkAiSRwrDIBDP6Hip-18" value="&lt;font style=&quot;font-size: 16px;&quot;&gt;erp_cust_az12&lt;/font&gt;" style="rounded=0;whiteSpace=wrap;html=1;fillColor=#ffe6cc;strokeColor=#d79b00;" vertex="1" parent="u1D3HhTzuwHHyMInepU7-34">
          <mxGeometry x="250" y="270" width="150" height="40" as="geometry" />
        </mxCell>
        <mxCell id="u1D3HhTzuwHHyMInepU7-13" style="edgeStyle=orthogonalEdgeStyle;rounded=0;orthogonalLoop=1;jettySize=auto;html=1;entryX=0;entryY=0.5;entryDx=0;entryDy=0;" edge="1" parent="u1D3HhTzuwHHyMInepU7-34" source="WVSZkAiSRwrDIBDP6Hip-19" target="u1D3HhTzuwHHyMInepU7-7">
          <mxGeometry relative="1" as="geometry" />
        </mxCell>
        <mxCell id="WVSZkAiSRwrDIBDP6Hip-19" value="&lt;font style=&quot;font-size: 16px;&quot;&gt;erp_loc_a101&lt;/font&gt;" style="rounded=0;whiteSpace=wrap;html=1;fillColor=#ffe6cc;strokeColor=#d79b00;" vertex="1" parent="u1D3HhTzuwHHyMInepU7-34">
          <mxGeometry x="250" y="320" width="150" height="40" as="geometry" />
        </mxCell>
        <mxCell id="u1D3HhTzuwHHyMInepU7-14" style="edgeStyle=orthogonalEdgeStyle;rounded=0;orthogonalLoop=1;jettySize=auto;html=1;entryX=0;entryY=0.5;entryDx=0;entryDy=0;" edge="1" parent="u1D3HhTzuwHHyMInepU7-34" source="WVSZkAiSRwrDIBDP6Hip-20" target="u1D3HhTzuwHHyMInepU7-8">
          <mxGeometry relative="1" as="geometry" />
        </mxCell>
        <mxCell id="WVSZkAiSRwrDIBDP6Hip-20" value="&lt;font style=&quot;font-size: 16px;&quot;&gt;erp_px_cat_g1v2&lt;/font&gt;" style="rounded=0;whiteSpace=wrap;html=1;fillColor=#ffe6cc;strokeColor=#d79b00;" vertex="1" parent="u1D3HhTzuwHHyMInepU7-34">
          <mxGeometry x="250" y="370" width="150" height="40" as="geometry" />
        </mxCell>
        <mxCell id="u1D3HhTzuwHHyMInepU7-1" value="v" style="rounded=0;whiteSpace=wrap;html=1;fillColor=none;dashed=1;strokeColor=#666666;strokeWidth=2;fontColor=#333333;" vertex="1" parent="u1D3HhTzuwHHyMInepU7-34">
          <mxGeometry x="500" y="80" width="190" height="390" as="geometry" />
        </mxCell>
        <mxCell id="u1D3HhTzuwHHyMInepU7-2" value="&lt;font style=&quot;font-size: 20px;&quot;&gt;Bronze&lt;/font&gt;" style="rounded=1;whiteSpace=wrap;html=1;fillColor=#f5f5f5;strokeColor=#666666;glass=0;sketch=1;curveFitting=1;jiggle=2;fontColor=#333333;" vertex="1" parent="u1D3HhTzuwHHyMInepU7-34">
          <mxGeometry x="500" y="30" width="190" height="40" as="geometry" />
        </mxCell>
        <mxCell id="u1D3HhTzuwHHyMInepU7-3" value="&lt;font style=&quot;font-size: 16px;&quot;&gt;crm_cust_info&lt;/font&gt;" style="rounded=0;whiteSpace=wrap;html=1;fillColor=#f5f5f5;strokeColor=#666666;fontColor=#333333;" vertex="1" parent="u1D3HhTzuwHHyMInepU7-34">
          <mxGeometry x="520" y="100" width="150" height="40" as="geometry" />
        </mxCell>
        <mxCell id="u1D3HhTzuwHHyMInepU7-4" value="&lt;font style=&quot;font-size: 16px;&quot;&gt;crm_prd_info&lt;/font&gt;" style="rounded=0;whiteSpace=wrap;html=1;fillColor=#f5f5f5;strokeColor=#666666;fontColor=#333333;" vertex="1" parent="u1D3HhTzuwHHyMInepU7-34">
          <mxGeometry x="520" y="150" width="150" height="40" as="geometry" />
        </mxCell>
        <mxCell id="u1D3HhTzuwHHyMInepU7-5" value="&lt;font style=&quot;font-size: 16px;&quot;&gt;crm_sales_details&lt;/font&gt;" style="rounded=0;whiteSpace=wrap;html=1;fillColor=#f5f5f5;strokeColor=#666666;fontColor=#333333;" vertex="1" parent="u1D3HhTzuwHHyMInepU7-34">
          <mxGeometry x="520" y="200" width="150" height="40" as="geometry" />
        </mxCell>
        <mxCell id="u1D3HhTzuwHHyMInepU7-6" value="&lt;font style=&quot;font-size: 16px;&quot;&gt;erp_cust_az12&lt;/font&gt;" style="rounded=0;whiteSpace=wrap;html=1;fillColor=#f5f5f5;strokeColor=#666666;fontColor=#333333;" vertex="1" parent="u1D3HhTzuwHHyMInepU7-34">
          <mxGeometry x="520" y="270" width="150" height="40" as="geometry" />
        </mxCell>
        <mxCell id="u1D3HhTzuwHHyMInepU7-7" value="&lt;font style=&quot;font-size: 16px;&quot;&gt;erp_loc_a101&lt;/font&gt;" style="rounded=0;whiteSpace=wrap;html=1;fillColor=#f5f5f5;strokeColor=#666666;fontColor=#333333;" vertex="1" parent="u1D3HhTzuwHHyMInepU7-34">
          <mxGeometry x="520" y="320" width="150" height="40" as="geometry" />
        </mxCell>
        <mxCell id="u1D3HhTzuwHHyMInepU7-8" value="&lt;font style=&quot;font-size: 16px;&quot;&gt;erp_px_cat_g1v2&lt;/font&gt;" style="rounded=0;whiteSpace=wrap;html=1;fillColor=#f5f5f5;strokeColor=#666666;fontColor=#333333;" vertex="1" parent="u1D3HhTzuwHHyMInepU7-34">
          <mxGeometry x="520" y="370" width="150" height="40" as="geometry" />
        </mxCell>
        <mxCell id="u1D3HhTzuwHHyMInepU7-15" value="v" style="rounded=0;whiteSpace=wrap;html=1;fillColor=none;dashed=1;strokeColor=#d6b656;strokeWidth=2;" vertex="1" parent="u1D3HhTzuwHHyMInepU7-34">
          <mxGeometry x="770" y="80" width="190" height="390" as="geometry" />
        </mxCell>
        <mxCell id="u1D3HhTzuwHHyMInepU7-16" value="&lt;font style=&quot;font-size: 20px;&quot;&gt;Gold&lt;/font&gt;" style="rounded=1;whiteSpace=wrap;html=1;fillColor=#fff2cc;strokeColor=#d6b656;glass=0;sketch=1;curveFitting=1;jiggle=2;" vertex="1" parent="u1D3HhTzuwHHyMInepU7-34">
          <mxGeometry x="770" y="30" width="190" height="40" as="geometry" />
        </mxCell>
        <mxCell id="u1D3HhTzuwHHyMInepU7-20" value="&lt;font style=&quot;font-size: 16px;&quot;&gt;dim_customers&lt;/font&gt;" style="rounded=0;whiteSpace=wrap;html=1;fillColor=#fff2cc;strokeColor=#d6b656;" vertex="1" parent="u1D3HhTzuwHHyMInepU7-34">
          <mxGeometry x="790" y="205" width="150" height="40" as="geometry" />
        </mxCell>
        <mxCell id="u1D3HhTzuwHHyMInepU7-21" value="&lt;font style=&quot;font-size: 16px;&quot;&gt;dim_products&lt;/font&gt;" style="rounded=0;whiteSpace=wrap;html=1;fillColor=#fff2cc;strokeColor=#d6b656;" vertex="1" parent="u1D3HhTzuwHHyMInepU7-34">
          <mxGeometry x="790" y="255" width="150" height="40" as="geometry" />
        </mxCell>
        <mxCell id="u1D3HhTzuwHHyMInepU7-22" value="&lt;font style=&quot;font-size: 16px;&quot;&gt;fact_sales&lt;/font&gt;" style="rounded=0;whiteSpace=wrap;html=1;fillColor=#fff2cc;strokeColor=#d6b656;" vertex="1" parent="u1D3HhTzuwHHyMInepU7-34">
          <mxGeometry x="790" y="305" width="150" height="40" as="geometry" />
        </mxCell>
        <mxCell id="u1D3HhTzuwHHyMInepU7-25" value="" style="endArrow=classic;html=1;rounded=0;entryX=0;entryY=0.5;entryDx=0;entryDy=0;exitX=1;exitY=0.5;exitDx=0;exitDy=0;jumpStyle=gap;" edge="1" parent="u1D3HhTzuwHHyMInepU7-34" source="u1D3HhTzuwHHyMInepU7-3" target="u1D3HhTzuwHHyMInepU7-20">
          <mxGeometry width="50" height="50" relative="1" as="geometry">
            <mxPoint x="750" y="240" as="sourcePoint" />
            <mxPoint x="560" y="260" as="targetPoint" />
          </mxGeometry>
        </mxCell>
        <mxCell id="u1D3HhTzuwHHyMInepU7-26" value="" style="endArrow=classic;html=1;rounded=0;entryX=0;entryY=0.5;entryDx=0;entryDy=0;exitX=1;exitY=0.5;exitDx=0;exitDy=0;jumpStyle=gap;" edge="1" parent="u1D3HhTzuwHHyMInepU7-34" source="u1D3HhTzuwHHyMInepU7-4" target="u1D3HhTzuwHHyMInepU7-21">
          <mxGeometry width="50" height="50" relative="1" as="geometry">
            <mxPoint x="740" y="210" as="sourcePoint" />
            <mxPoint x="860" y="315" as="targetPoint" />
          </mxGeometry>
        </mxCell>
        <mxCell id="u1D3HhTzuwHHyMInepU7-27" value="" style="endArrow=classic;html=1;rounded=0;entryX=0;entryY=0.5;entryDx=0;entryDy=0;exitX=1;exitY=0.5;exitDx=0;exitDy=0;jumpStyle=gap;" edge="1" parent="u1D3HhTzuwHHyMInepU7-34" source="u1D3HhTzuwHHyMInepU7-5" target="u1D3HhTzuwHHyMInepU7-22">
          <mxGeometry width="50" height="50" relative="1" as="geometry">
            <mxPoint x="720" y="210" as="sourcePoint" />
            <mxPoint x="840" y="315" as="targetPoint" />
          </mxGeometry>
        </mxCell>
        <mxCell id="u1D3HhTzuwHHyMInepU7-28" value="" style="endArrow=classic;html=1;rounded=0;entryX=0;entryY=0.5;entryDx=0;entryDy=0;exitX=1;exitY=0.5;exitDx=0;exitDy=0;jumpStyle=gap;" edge="1" parent="u1D3HhTzuwHHyMInepU7-34" source="u1D3HhTzuwHHyMInepU7-6" target="u1D3HhTzuwHHyMInepU7-20">
          <mxGeometry width="50" height="50" relative="1" as="geometry">
            <mxPoint x="730" y="270" as="sourcePoint" />
            <mxPoint x="850" y="375" as="targetPoint" />
          </mxGeometry>
        </mxCell>
        <mxCell id="u1D3HhTzuwHHyMInepU7-29" value="" style="endArrow=classic;html=1;rounded=0;entryX=0;entryY=0.5;entryDx=0;entryDy=0;exitX=1;exitY=0.5;exitDx=0;exitDy=0;jumpStyle=gap;" edge="1" parent="u1D3HhTzuwHHyMInepU7-34" source="u1D3HhTzuwHHyMInepU7-7" target="u1D3HhTzuwHHyMInepU7-20">
          <mxGeometry width="50" height="50" relative="1" as="geometry">
            <mxPoint x="730" y="315" as="sourcePoint" />
            <mxPoint x="850" y="250" as="targetPoint" />
          </mxGeometry>
        </mxCell>
        <mxCell id="u1D3HhTzuwHHyMInepU7-30" value="" style="endArrow=classic;html=1;rounded=0;entryX=0;entryY=0.5;entryDx=0;entryDy=0;exitX=1;exitY=0.5;exitDx=0;exitDy=0;jumpStyle=gap;" edge="1" parent="u1D3HhTzuwHHyMInepU7-34" source="u1D3HhTzuwHHyMInepU7-8" target="u1D3HhTzuwHHyMInepU7-21">
          <mxGeometry width="50" height="50" relative="1" as="geometry">
            <mxPoint x="700" y="415" as="sourcePoint" />
            <mxPoint x="820" y="300" as="targetPoint" />
          </mxGeometry>
        </mxCell>
        <mxCell id="u1D3HhTzuwHHyMInepU7-31" value="" style="shape=image;verticalLabelPosition=bottom;labelBackgroundColor=default;verticalAlign=top;aspect=fixed;imageAspect=0;image=https://cdn.prod.website-files.com/605c9e03d6553a5d82976ce2/653c1186080b8fbffeda5790_AzureDataLake.png;" vertex="1" parent="u1D3HhTzuwHHyMInepU7-34">
          <mxGeometry x="14" y="424" width="186.66" height="70" as="geometry" />
        </mxCell>
        <mxCell id="u1D3HhTzuwHHyMInepU7-32" value="" style="rounded=0;whiteSpace=wrap;html=1;fillColor=none;dashed=1;strokeColor=#6c8ebf;" vertex="1" parent="u1D3HhTzuwHHyMInepU7-34">
          <mxGeometry x="190" y="10" width="850" height="490" as="geometry" />
        </mxCell>
        <mxCell id="u1D3HhTzuwHHyMInepU7-33" value="" style="image;aspect=fixed;html=1;points=[];align=center;fontSize=12;image=img/lib/azure2/analytics/Azure_Databricks.svg;" vertex="1" parent="u1D3HhTzuwHHyMInepU7-34">
          <mxGeometry x="980" y="20" width="46.18" height="50" as="geometry" />
        </mxCell>
      </root>
    </mxGraphModel>
  </diagram>
</mxfile>
